<svg xmlns="http://www.w3.org/2000/svg" width="512" height="512" viewBox="0 0 512 512">
  <defs>
    <linearGradient id="bg" x1="0" y1="0" x2="0" y2="1">
      <stop offset="0" stop-color="#7a1220"/><stop offset="1" stop-color="#5c0d18"/>
    </linearGradient>
  </defs>
  <rect width="512" height="512" rx="112" fill="url(#bg)"/>
  <!-- marigold ring -->
  <g fill="none" stroke="#f39c12" stroke-width="10" stroke-dasharray="2 26" stroke-linecap="round" opacity=".7">
    <circle cx="256" cy="256" r="196"/>
  </g>
  <!-- Durga chokkhu -->
  <g transform="translate(256,232)">
    <g stroke="#f4cf82" stroke-width="9" stroke-linecap="round" fill="none">
      <path d="M-150 8 C -70 -70, 10 -70, 40 -6"/>
      <path d="M-150 8 C -70 78, 10 78, 40 10"/>
      <path d="M150 8 C 70 -70, -10 -70, -40 -6"/>
      <path d="M150 8 C 70 78, -10 78, -40 10"/>
    </g>
    <ellipse cx="-92" cy="2" rx="30" ry="36" fill="#fff"/>
    <ellipse cx="92" cy="2" rx="30" ry="36" fill="#fff"/>
    <circle cx="-92" cy="6" r="15" fill="#7a1220"/><circle cx="92" cy="6" r="15" fill="#7a1220"/>
    <path d="M0 -66 L-9 -18 L9 -18 Z" fill="#c8102e"/>
    <circle cx="0" cy="-74" r="8" fill="#f4cf82"/>
  </g>
  <text x="256" y="430" font-family="Georgia,'Times New Roman',serif" font-size="86" font-weight="700"
        text-anchor="middle" fill="#f4cf82">OPB</text>
</svg>
